<svg xmlns="http://www.w3.org/2000/svg" width="390" height="512" viewBox="0 0 390 512">
  <g id="placeholder" transform="translate(-61)">
    <g id="Group_1" data-name="Group 1">
      <path id="Path_1" data-name="Path 1" d="M256,0C148.48,0,61,87.48,61,195A193.253,193.253,0,0,0,99.9,311.9L243.98,505.951c.36.47.91.65,1.31,1.07,7.2,7.71,17.59,5.77,22.72-1.07C309.5,450.591,385.55,347.2,414.79,308.2a.474.474,0,0,1,.02-.05l.18-.24A193.606,193.606,0,0,0,451,195C451,87.48,363.52,0,256,0Zm0,300.2c-57.89,0-105.2-47.31-105.2-105.2S198.11,89.8,256,89.8,361.2,137.11,361.2,195,313.89,300.2,256,300.2Z" fill="#3270fc"/>
    </g>
  </g>
</svg>
